<?xml version="1.0" encoding="utf-8"?>
<!-- Generator: Adobe Illustrator 16.0.0, SVG Export Plug-In . SVG Version: 6.00 Build 0)  -->
<!DOCTYPE svg PUBLIC "-//W3C//DTD SVG 1.1//EN" "http://www.w3.org/Graphics/SVG/1.1/DTD/svg11.dtd">
<svg version="1.1" id="Layer_1" xmlns="http://www.w3.org/2000/svg" xmlns:xlink="http://www.w3.org/1999/xlink" x="0px" y="0px"
	 width="800px" height="600px" viewBox="0 0 800 600" enable-background="new 0 0 800 600" xml:space="preserve">
	 <g>
	 <g>
		<g>
			<path fill="#3D3D3D" d="M70.474,348.837c-0.626-1.198-1.42-2.245-2.327-3.21c-1.476-1.422-3.224-2.437-5.197-2.974
				c-8.403-2.513-20.863,2.06-29.405,10.491c-10.597,10.522-11.243,23.05-3.857,30.501c3.728,3.803,9.835,5.544,16.346,4.959
				c1.684-0.115,3.447-0.385,5.208-0.907c4.626-1.238,9.208-3.718,13.014-7.505C73.589,370.993,75.229,357.106,70.474,348.837z
				 M60.285,376.208c-8.398,8.297-21.419,8.68-26.573,3.481c-5.539-5.599-3.937-14.86,3.807-22.55
				c9.276-9.139,22.345-11.77,26.583-7.492C69.256,354.83,68.702,367.879,60.285,376.208z"/>
		</g>
		<g>
			<path fill="#3D3D3D" d="M67.894,307.334c0.035-0.209,0.07-0.386,0.089-0.582c1.033-9.564-12.732-20.89-27.088-22.377
				c-14.292-1.477-23.55,5.476-24.724,17.04c-1.199,11.509,9.583,20.565,23.913,22.092c11.2,1.097,21.381-3.884,25.711-10.74
				C66.887,311.053,67.626,309.192,67.894,307.334z M40.669,317.906c-11.639-1.195-19.735-7.99-18.934-15.892
				c0.911-8.794,7.668-13.177,18.626-12.046c11.643,1.176,22.678,10.479,22.057,16.237c-0.121,1.472-0.781,2.899-1.837,4.327
				c-0.597,0.747-1.284,1.481-2.025,2.198C54.52,316.248,47.89,318.683,40.669,317.906z"/>
		</g>
		<g>
			<g>
				<path fill="#3D3D3D" d="M87.006,305.972l-19.112,1.362l-2.334,0.23l-4.978,2.968c-0.597,0.747-1.284,1.481-2.025,2.198
					c2.429-0.255,4.857-0.232,7.238,0.036c4.886,0.472,9.607,1.788,13.754,3.327L87.006,305.972z"/>
			</g>
			<g>
				<path fill="#3D3D3D" d="M141.318,302.045c-22.748,11.668-28.043,14.367-39.945,20.311c22.832-3.601,94.924-15.761,98.457-24.586
					L141.318,302.045z"/>
			</g>
		</g>
		<g>
			<g>
				<path fill="#3D3D3D" d="M54.865,400.146c-3.304,0.699-4.961,1.049-8.224,1.801c-0.907-6.599-0.962-9.93-0.338-16.545
					c1.796-0.104,2.713-0.188,4.514-0.29C51.71,391.292,52.516,394.291,54.865,400.146z"/>
			</g>
		</g>
		<g>
			<path fill="#3D3D3D" d="M99.565,299.054c-3.767,1.285-7.075,3.741-9.467,6.96l-29.854,40.248l8.526,4.661l18.343-22.279
				c1.805-2.174,4.019-3.948,6.549-5.18c20.629-10.255,18-8.821,98.219-50.241c-2.267-1.238-11.198,0.491-22.811,3.591
				C146.194,282.933,112.904,294.38,99.565,299.054z M96.806,313.807c-2.129-1.123-2.926-3.818-1.763-5.915
				c1.154-2.142,3.822-2.949,5.952-1.75c2.117,1.122,2.913,3.818,1.751,5.905C101.594,314.194,98.934,314.988,96.806,313.807z"/>
		</g>
	</g>
	<path fill="#AD8B3D" d="M680.936,207.051c0,0,40.914-119.366-50.486-192.2c0,0-68.113,83.544,7.225,178.731
		c0,0-69.206-40.087-139.851-4.135c0,0,37.297,70.859,134.801,47.568c0,0-40.518-0.922-70.827-30.202c0,0,40.852-18.11,96.132,6.101
		c0,0-35.253-58.134-13.173-117.208C644.756,95.706,691.13,136.41,680.936,207.051z"/>
	<path fill="#AD8B3D" d="M550.905,265.629c0,0,163.34,24.355,240.149-119.894c0,0-32.542,25.288-72.772,22.14
		C718.282,167.875,717.287,252.518,550.905,265.629z"/>
</g>
</svg>
